<svg id="Layer_1" data-name="Layer 1" xmlns="http://www.w3.org/2000/svg" viewBox="0 0 325.31 73.35"><defs><style>.cls-1{font-size:43.56px;fill:#3eb54a;font-family:Abril Text;font-weight:700;}.cls-2,.cls-4{fill:#eff1ae;}.cls-2,.cls-3,.cls-4,.cls-5{stroke:#231f20;stroke-miterlimit:10;}.cls-2{stroke-width:2.42px;}.cls-3{fill:#ffda31;stroke-width:1.21px;}.cls-4{stroke-width:1.52px;}.cls-5{fill:#59ba48;stroke-width:2.08px;}</style></defs><title>logo</title><text class="cls-1" transform="translate(77.7 60.44)">ChangeSeed</text><circle class="cls-2" cx="31.67" cy="41.68" r="30.45"/><circle class="cls-3" cx="31.67" cy="41.68" r="23.36"/><path class="cls-4" d="M34.8,30.43h0A12.71,12.71,0,0,1,45.69,49.72L38,62.5a2.74,2.74,0,0,1-4.69,0L24.71,48.31A11.78,11.78,0,0,1,34.8,30.43Z" transform="translate(-3.6 -5.44)"/><path class="cls-5" d="M65.86,9.49h0a11,11,0,0,1,3.19,5.93c0.76,4.39-1.56,8.67-6.29,9.52l-10.5,1.89a2.38,2.38,0,0,1-2.66-2.63l2-11.68C52.66,6.06,60.67,4.36,65.86,9.49Z" transform="translate(-3.6 -5.44)"/></svg>