<?xml version="1.0" encoding="utf-8"?>
<!-- Generator: Adobe Illustrator 19.2.0, SVG Export Plug-In . SVG Version: 6.00 Build 0)  -->
<svg version="1.1" id="Layer_1" xmlns="http://www.w3.org/2000/svg" xmlns:xlink="http://www.w3.org/1999/xlink" x="0px" y="0px"
	 viewBox="0 0 54.3 52.3" style="enable-background:new 0 0 54.3 52.3;" xml:space="preserve">
<style type="text/css">
	.st0{fill:#EFF1AE;stroke:#000000;stroke-width:2;stroke-miterlimit:10;}
	.st1{fill:#FFDA31;stroke:#000000;stroke-miterlimit:10;}
	.st2{fill:#EFF1AE;stroke:#000000;stroke-width:1.2572;stroke-miterlimit:10;}
	.st3{fill:#59BA48;stroke:#000000;stroke-width:1.7146;stroke-miterlimit:10;}
</style>
<g>
	<circle class="st0" cx="25.7" cy="26.2" r="25.1"/>
	<circle class="st1" cx="25.7" cy="26.2" r="19.3"/>
	<path class="st2" d="M25.4,12.5L25.4,12.5c8.2,0,13.2,8.9,9,15.9L28,38.9c-0.9,1.5-3,1.5-3.9,0L17,27.2
		C13.1,20.7,17.8,12.5,25.4,12.5z"/>
	<path class="st3" d="M51,3.4L51,3.4c1.5,1.5,2.3,3.2,2.6,4.9c0.6,3.6-1.3,7.2-5.2,7.9l-8.7,1.6c-1.2,0.2-2.4-1-2.2-2.2l1.6-9.6
		C40.1,0.5,46.7-0.9,51,3.4z"/>
</g>
</svg>
