<?xml version="1.0" encoding="utf-8"?>
<!-- Generator: Adobe Illustrator 19.2.0, SVG Export Plug-In . SVG Version: 6.00 Build 0)  -->
<svg version="1.1" id="Layer_1" xmlns="http://www.w3.org/2000/svg" xmlns:xlink="http://www.w3.org/1999/xlink" x="0px" y="0px"
	 viewBox="0 0 52.9 66.5" style="enable-background:new 0 0 52.9 66.5;" xml:space="preserve">
<style type="text/css">
	.st0{fill:#3C90CE;}
	.st1{fill:#559E44;}
	.st2{fill:#FBEF5C;}
	.st3{fill:#3EC2F1;}
</style>
<g>
	<g>
		<path class="st0" d="M0.3,22.6c-0.3,2.1-0.4,4.1-0.2,6.1c0,0.6,0.5,1.1,1.1,1.2L49.7,37c0.5,0.1,1-0.2,1.2-0.7
			c0.8-1.9,1.3-3.9,1.6-6c0.2-1.5,0.3-3.1,0.3-4.6c0-0.6-0.5-1.2-1.1-1.3l-49-7.2c-0.6-0.1-1.2,0.2-1.3,0.8
			C0.9,19.5,0.5,21,0.3,22.6z"/>
		<path class="st1" d="M9.5,6.1c-2.6,2.1-4.8,4.8-6.4,7.8c-0.1,0.3,0,0.6,0.3,0.7l47.5,7c0.7,0.1,1.3-0.6,1.2-1.3
			c-0.7-3-2-5.9-3.7-8.5c-0.2-0.3-0.6-0.6-1-0.6L10.8,5.8C10.3,5.7,9.9,5.8,9.5,6.1z"/>
		<path class="st2" d="M43.8,7.9c0.5,0.1,0.9-0.6,0.5-1c-3.8-3.4-8.6-5.8-14-6.6C24.9-0.5,19.6,0.4,15,2.6c-0.5,0.2-0.4,1,0.2,1.1
			L43.8,7.9z"/>
	</g>
	<path class="st0" d="M5.2,54.3c2.3,2.1,7.6,5.8,15.1,3.2c0.7-0.2,1.4,0.4,1.2,1.1l-1.1,5c-0.3,1.5-1.6,2.6-3.2,2.7l-1.7,0.1
		c-3.4,0.2-6.8-0.5-9.8-2.1l-1.6-0.9c-1.3-0.7-2-2.1-1.7-3.6l1.1-5.1C3.8,54,4.7,53.8,5.2,54.3z"/>
	<path class="st3" d="M1.4,32.6c-0.3,0-0.6,0.2-0.5,0.6c1.7,6.4,5.8,12,11.3,15.6c-0.3,0.3-0.5,0.8-0.5,1.3l-0.1,2.6
		c0,1.1,0.9,2,2,2l9,0.2c1.1,0,2-0.9,2-2l0-0.1c9.9,0.7,19.1-4.2,24.1-12.2c0.3-0.4,0-1-0.5-1.1L1.4,32.6z"/>
</g>
</svg>
